<?xml version="1.0" encoding="iso-8859-1"?>
<!-- Generator: Adobe Illustrator 19.0.0, SVG Export Plug-In . SVG Version: 6.00 Build 0)  -->
<svg version="1.1" id="Capa_1" xmlns="http://www.w3.org/2000/svg" xmlns:xlink="http://www.w3.org/1999/xlink" x="0px" y="0px"
	 viewBox="0 0 511.999 511.999" style="enable-background:new 0 0 511.999 511.999;" xml:space="preserve">
<g>
	<g>
		<path d="M256.122,246.4l-27.006-27.006c-8.455-8.454-19.695-13.109-31.651-13.109c-11.957,0-23.197,4.656-31.651,13.11
			c-6.625,6.626-10.946,15.012-12.495,24.253l-3.712,22.153c-6.396,38.165-24.239,72.802-51.602,100.166
			c-17.815,17.815-46.805,17.815-64.623-0.001c-8.632-8.63-13.384-20.104-13.384-32.31c0-12.206,4.753-23.68,13.383-32.311
			l102.985-102.985c3.905-3.905,3.905-10.237,0-14.142c-3.905-3.904-10.238-3.904-14.141,0L19.241,287.204
			C6.833,299.612,0,316.109,0,333.657c0,17.548,6.833,34.045,19.241,46.453c12.808,12.807,29.629,19.209,46.452,19.209
			c16.822,0,33.646-6.404,46.453-19.21c30.324-30.324,50.098-68.707,57.185-111.003l3.712-22.153
			c0.857-5.112,3.247-9.752,6.913-13.417c4.677-4.678,10.896-7.253,17.509-7.253c6.614,0,12.833,2.575,17.508,7.253l27.006,27.006
			c3.905,3.904,10.237,3.904,14.142,0C260.027,256.638,260.027,250.306,256.122,246.4z"/>
	</g>
</g>
<g>
	<g>
		<path d="M168.698,151.883c-1.86-1.86-4.44-2.93-7.07-2.93c-2.63,0-5.21,1.069-7.07,2.93c-1.86,1.861-2.93,4.439-2.93,7.07
			c0,2.64,1.07,5.21,2.93,7.069c1.86,1.87,4.44,2.931,7.07,2.931c2.63,0,5.21-1.061,7.07-2.931c1.86-1.859,2.93-4.43,2.93-7.069
			C171.628,156.322,170.558,153.743,168.698,151.883z"/>
	</g>
</g>
<g>
	<g>
		<path d="M431.39,71.133l-52.097-52.095c-12.272-12.272-28.588-19.03-45.943-19.03c-17.355,0-33.672,6.759-45.943,19.03
			L182.224,124.221c-3.905,3.905-3.905,10.237,0,14.142c1.953,1.951,4.512,2.928,7.071,2.928s5.119-0.977,7.071-2.929
			L301.549,33.181c8.495-8.495,19.788-13.174,31.802-13.174c12.013,0,23.307,4.679,31.802,13.174l52.095,52.095
			c3.905,3.904,10.237,3.904,14.142,0C435.295,81.371,435.295,75.039,431.39,71.133z"/>
	</g>
</g>
<g>
	<g>
		<path d="M89.13,310.218c-12.922-12.923-33.95-12.923-46.874,0c-12.924,12.924-12.924,33.953,0,46.877
			c6.462,6.462,14.949,9.692,23.437,9.692s16.976-3.23,23.437-9.692C102.053,344.17,102.053,323.142,89.13,310.218z M74.99,342.953
			c-5.126,5.127-13.466,5.126-18.592,0c-5.126-5.126-5.126-13.467,0-18.593c2.563-2.563,5.93-3.845,9.297-3.845
			c3.367,0,6.734,1.282,9.296,3.845C80.116,329.486,80.116,337.828,74.99,342.953z"/>
	</g>
</g>
<g>
	<g>
		<path d="M402.177,100.344l-55.921-55.922c-3.906-3.903-10.237-3.904-14.141,0c-3.905,3.905-3.906,10.237,0,14.143l55.921,55.922
			c1.952,1.952,4.511,2.929,7.071,2.929c2.559,0,5.119-0.977,7.071-2.929C406.082,110.582,406.083,104.25,402.177,100.344z"/>
	</g>
</g>
<g>
	<g>
		<path d="M372.966,129.555l-55.922-55.922c-3.905-3.904-10.237-3.904-14.142,0c-3.905,3.905-3.905,10.237,0,14.142l55.922,55.922
			c1.953,1.952,4.513,2.929,7.072,2.929s5.119-0.977,7.071-2.929C376.871,139.793,376.871,133.461,372.966,129.555z"/>
	</g>
</g>
<g>
	<g>
		<path d="M343.754,158.766l-55.921-55.922c-3.905-3.904-10.237-3.904-14.141,0c-3.905,3.905-3.906,10.237,0,14.142l55.921,55.922
			c1.953,1.952,4.512,2.929,7.071,2.929s5.119-0.977,7.071-2.929C347.659,169.004,347.66,162.672,343.754,158.766z"/>
	</g>
</g>
<g>
	<g>
		<path d="M314.543,187.977l-55.922-55.921c-3.905-3.904-10.237-3.904-14.141,0c-3.905,3.905-3.905,10.237,0,14.142l55.922,55.921
			c1.953,1.952,4.512,2.929,7.071,2.929s5.119-0.977,7.071-2.929C318.448,198.215,318.448,191.883,314.543,187.977z"/>
	</g>
</g>
<g>
	<g>
		<path d="M285.332,217.189l-55.921-55.922c-3.905-3.903-10.237-3.904-14.141,0c-3.905,3.905-3.906,10.237,0,14.143l55.921,55.922
			c1.953,1.952,4.512,2.929,7.071,2.929s5.119-0.977,7.071-2.929C289.237,227.427,289.238,221.095,285.332,217.189z"/>
	</g>
</g>
<g>
	<g>
		<path d="M457.16,313.342c9.44-10.708,14.607-24.306,14.607-38.707c0-15.661-6.099-30.387-17.173-41.461
			c-22.86-22.859-60.06-22.859-82.92,0c-11.075,11.075-17.173,25.8-17.173,41.461c0,14.339,5.126,27.884,14.489,38.571h-52.487
			c-5.523,0-10,4.478-10,10s4.477,10,10,10h92.813c-6.978,7.946-11.841,17.782-13.714,28.636H163.293
			c4.418-16.471,19.477-28.636,37.323-28.636h39.391c5.523,0,10-4.478,10-10s-4.477-10-10-10h-39.391
			c-32.331,0-58.634,26.304-58.634,58.635c0,5.522,4.477,10,10,10h139.806l-98.834,98.834c-3.905,3.905-3.905,10.237,0,14.142
			c11.075,11.075,25.799,17.173,41.46,17.173s30.386-6.099,41.459-17.173l112.978-112.976h6.751
			c4.762,27.582,28.843,48.634,57.764,48.634c32.331,0,58.634-26.303,58.634-58.634C512,340.786,487.728,315.306,457.16,313.342z
			 M261.732,480.674c-7.297,7.298-16.999,11.316-27.318,11.316c-6.897,0-13.518-1.795-19.329-5.164L320.072,381.84h40.496
			L261.732,480.674z M410.969,313.206c-9.506-0.522-18.369-4.469-25.153-11.253c-7.297-7.297-11.316-16.998-11.316-27.318
			c0-10.32,4.019-20.022,11.316-27.319c15.063-15.062,39.575-15.063,54.638,0c7.298,7.297,11.316,16.999,11.316,27.319
			c0,10.32-4.019,20.021-11.316,27.318c-6.784,6.785-15.647,10.731-25.152,11.253H410.969z M453.365,410.475
			c-21.303,0-38.635-17.331-38.635-38.635c0-21.304,17.331-38.636,38.635-38.636c21.303,0,38.635,17.331,38.635,38.636
			C492.001,393.143,474.669,410.475,453.365,410.475z"/>
	</g>
</g>
<g>
	<g>
		<path d="M286.583,316.137c-1.86-1.859-4.44-2.93-7.07-2.93c-2.63,0-5.21,1.07-7.07,2.93c-1.86,1.86-2.93,4.44-2.93,7.07
			c0,2.63,1.07,5.21,2.93,7.07c1.86,1.859,4.441,2.93,7.07,2.93c2.63,0,5.21-1.07,7.07-2.93s2.93-4.44,2.93-7.07
			C289.513,320.577,288.443,317.997,286.583,316.137z"/>
	</g>
</g>
<g>
	<g>
		<path d="M380.191,341.966c-1.86-1.86-4.44-2.92-7.07-2.92c-2.64,0-5.21,1.06-7.07,2.92c-1.86,1.86-2.93,4.44-2.93,7.08
			c0,2.63,1.07,5.2,2.93,7.07c1.86,1.859,4.43,2.93,7.07,2.93c2.63,0,5.209-1.071,7.07-2.93c1.86-1.87,2.93-4.44,2.93-7.07
			C383.121,346.406,382.051,343.826,380.191,341.966z"/>
	</g>
</g>
<g>
</g>
<g>
</g>
<g>
</g>
<g>
</g>
<g>
</g>
<g>
</g>
<g>
</g>
<g>
</g>
<g>
</g>
<g>
</g>
<g>
</g>
<g>
</g>
<g>
</g>
<g>
</g>
<g>
</g>
</svg>
