<svg id="outline" height="512" viewBox="0 0 512 512" width="512" xmlns="http://www.w3.org/2000/svg"><path d="m23.99951 496.00146h464a7.99977 7.99977 0 0 0 8-8v-132.9121a46.17621 46.17621 0 0 0 -62.38965-43.23636l-21.95605 8.23388a24.146 24.146 0 0 1 -27.64893-8.07812 40.20838 40.20838 0 0 0 -32.01465-16.00733h-14.46215l13.6853-28.541a8.00034 8.00034 0 0 0 -.05859-7.03662l-32-64a7.99926 7.99926 0 0 0 -7.15528-4.42237h-32v-40a7.99977 7.99977 0 0 0 8-8v-96.00044a32 32 0 0 0 -64 0v41.442l-5.25146 1.05023a111.61971 111.61971 0 0 1 -52.31787-2.11767 83.28226 83.28226 0 0 0 -60.271 5.60205 40.80065 40.80065 0 0 1 -36.31885-.00049 56.90066 56.90066 0 0 0 -25.31494-5.97559h-20.52588a7.99977 7.99977 0 0 0 -8 8v392a7.99977 7.99977 0 0 0 8 7.99993zm248-360h-32v-72h32zm-40 24v32h-32a7.99925 7.99925 0 0 0 -7.15527 4.42237l-29.78882 59.57763h-3.05591v-96zm-136 208v-96h66.93726l45.47412 96zm-64 0v-96h48v96zm112-112h-112v-96h112zm-112 128h112v96h-112zm128 0h55.99049l10.095 21.31154a32.67538 32.67538 0 0 0 59.564-1.11572l9.68383-20.19581h56.66675v96h-192zm320 96h-112v-96h112zm-128.00928-168a24.13309 24.13309 0 0 1 19.21485 9.60694 40.23656 40.23656 0 0 0 46.06689 13.46l21.95557-8.23389a30.176 30.176 0 0 1 40.772 28.25489v12.9121h-176.9949l26.85156-56zm-44.935-104 28.03711 56.07374-63.94879 133.36669q-.08349.17578-.15917.3545a16.67541 16.67541 0 0 1 -30.43946.66748l-63.64844-134.36768 28.04737-56.09473h27.05566v40a24 24 0 0 0 48 0v-40zm-43.05567 40a8 8 0 0 1 -16 0v-96h16zm-8-216a16.01792 16.01792 0 0 1 16 15.99952v.00048h-32v-.00046a16.01792 16.01792 0 0 1 15.99995-15.99954zm-211.47412 72a40.81853 40.81853 0 0 1 18.15967 4.28663 56.87507 56.87507 0 0 0 50.62939 0 67.32269 67.32269 0 0 1 48.72022-4.52784 127.68988 127.68988 0 0 0 59.85107 2.42237l2.11377-.42273v38.24157h-192v-40z"/></svg>