<svg id="Layer_1" enable-background="new 0 0 64 64" height="512" viewBox="0 0 64 64" width="512" xmlns="http://www.w3.org/2000/svg"><path d="m55.4 44.6c-.9-2.8-2.8-5.1-5.3-6.6l-8.5-5.1c.9-1.2 1.6-2.5 2-4l2.1-.5c1.3-.3 2.3-1.5 2.3-2.9v-.5c0-1.7-1.3-3-3-3h-1v-2h.8c1.8 0 3.2-1.5 3.2-3.2 0-1.5-1-2.8-2.5-3.1l-1.5-.5v-.1c0-4.6-3.4-8.4-8-8.9l-.9-.1c-.4-1.2-1.6-2.1-2.9-2.1h-.5c-1.3 0-2.5.9-2.9 2.1l-.8.1c-4.6.5-8 4.4-8 8.9v.1l-1.5.4c-1.7.4-2.8 2.2-2.4 3.9.4 1.4 1.7 2.5 3.1 2.5h.8v2h-1c-1.7 0-3 1.3-3 3v.4c0 1.4.9 2.6 2.3 2.9l2.1.5c.4 1.4 1 2.8 2 4l-8.5 5.1c-3.7 2.2-5.9 6.1-5.9 10.3v13.8h44c1.7 0 3-1.3 3-3v-2.5c1.9-1.3 3-3.5 3-5.7v-.8c0-2.1-.9-4.1-2.6-5.4zm-2.8-1.4c-2.6-.6-5.3.3-7 2.3-.4-.3-1-.5-1.6-.5v-7.3l1-.5 4.2 2.5c1.4.8 2.6 2 3.4 3.5zm-5.4 16.8h-28.2v-12c0-.6.4-1 1-1h24c.2 0 .4.1.6.2-.4.9-.6 1.8-.6 2.8v.8c0 2.3 1.1 4.4 3 5.7v2.5c0 .3.1.7.2 1zm-21.5-24.3 2 1.1c2.7 1.5 5.9 1.5 8.6 0l2-1.1c.7-.4 1.4-.9 2-1.4l2.7 1.7-4.3 2.3c-4.1 2.2-9.1 2.2-13.3 0l-4.4-2.3 2.7-1.6c.7.5 1.3.9 2 1.3zm14.3 9.3v-5.2l2-1.1v6.3zm-14-4.2c3.8 1.6 8.2 1.6 12 0v4.2h-12zm-2-1v5.2h-2v-6.2zm21-15.8c.6 0 1 .4 1 1v.4c0 .5-.3.9-.8 1l-1.2.3c0-.2 0-.4 0-.7v-2zm-16.8-17.8h.4l-.6 4.7 2 .2.8-6.2c.1-.5.5-.9 1-.9h.5c.5 0 .9.4 1 .9l.8 6.2 2-.2-.6-4.7h.4c3.5.4 6.1 3.3 6.2 6.8h-20.1c.1-3.5 2.7-6.4 6.2-6.8zm-9 11.8c-.7 0-1.2-.6-1.2-1.2s.4-1.1.9-1.2l2.2-.5h21.8l2.2.5c.7.2 1.1.8.9 1.5-.1.6-.6.9-1.2.9zm-.4 8.4c-.4-.1-.8-.5-.8-1v-.4c0-.6.4-1 1-1h1v2.1.7zm3.2-6.4h20v6.1c0 3.3-1.8 6.3-4.7 7.9l-2 1.1c-2.1 1.1-4.6 1.1-6.7 0l-2-1.1c-2.9-1.6-4.7-4.6-4.7-7.9v-6.1zm-12 28.2c0-3.5 1.9-6.8 4.9-8.6l4.2-2.5 1 .5v7.4c-1.7 0-3 1.3-3 3v12h-7v-11.8zm42 11.8h-2c-.6 0-1-.4-1-1v-2h4v2c0 .6-.4 1-1 1zm4-9.2c0 1.7-.8 3.2-2.2 4.2h-.1-1.7v-3.6l1.7-1.7-1.4-1.4-1.3 1.3-1.3-1.3-1.4 1.4 1.7 1.7v3.6h-1.7l-.1-.1c-1.4-.9-2.2-2.4-2.2-4.1v-.8c0-2.8 2.2-5 5-5s5 2.2 5 5z"/><path d="m39.8 49.6-1.6-1.2-3.9 5.2 4 1-2.1 2.8 1.6 1.2 3.9-5.2-4-1z"/></svg>