<svg id="Capa_1" enable-background="new 0 0 512 512" height="512" viewBox="0 0 512 512" width="512" xmlns="http://www.w3.org/2000/svg"><g><g><path d="m481.319 421.323s-389.33-.159-389.406-.157c-7.662-.101-11.8.481-21.998 5.036l-63.037 28.131c-4.225 1.87-6.848 5.874-6.844 10.449.004 4.527 2.695 8.637 6.814 10.451 20.674 9.254 63.064 28.171 63.064 28.171 9.544 4.262 13.681 4.739 20.462 4.739l152.604.141c4.142 0 7.5-3.358 7.5-7.5s-3.358-7.5-7.5-7.5c0 0-142.722.004-143.34.009v-20.99h331.385v20.981h-150.804c-4.143 0-7.5 3.358-7.5 7.5s3.357 7.5 7.5 7.5h201.101c16.917 0 30.681-13.74 30.681-30.628v-25.705c-.001-16.888-13.765-30.628-30.682-30.628zm-437.765 33.069v20.813c-7.77-3.47-15.532-6.932-23.31-10.411zm15 27.512v-34.206s23.852-10.495 26.084-11.008v56.228c-2.232-.513-20.609-8.57-26.084-11.014zm41.085-24.6v-20.99c.618.005 1.254.009 1.929.009h329.456v20.981zm397.361 20.352c0 8.618-7.034 15.628-15.681 15.628h-35.296v-56.962h35.296c8.646 0 15.681 7.011 15.681 15.628z"/><path d="m12.889 396.562 228.996-.028c4.142 0 7.5-3.359 7.499-7.501s-3.359-7.5-7.501-7.499l-226.883.027v-306.058h29.985v250.724c0 6.807 5.542 12.344 12.355 12.344h310.997c5.14 0 9.608-2.775 11.385-7.069 1.771-4.283.598-9.066-3.14-12.796l-243.723-243.203h275.854v237.816c0 7.007 5.706 12.708 12.72 12.708h33.059c15.347 0 27.832 12.45 27.832 27.753s-12.485 27.753-27.832 27.753h-178.175c-4.143 0-7.5 3.358-7.5 7.5s3.357 7.5 7.5 7.5h178.174c23.617 0 42.832-19.179 42.832-42.753v-281.184c0-23.59-19.215-42.781-42.832-42.781h-33.059c-7.014 0-12.72 5.688-12.72 12.68v18.009h-290.886l-52.971-52.859c-3.748-3.74-8.551-4.897-12.85-3.097-4.3 1.802-7.056 6.276-7.02 11.346v44.609h-32.097c-7.106 0-12.888 5.789-12.888 12.905v310.25c0 7.114 5.782 12.904 12.889 12.904zm410.824-351.748h30.778c15.347 0 27.832 12.462 27.832 27.781v248.712c-7.491-6.407-17.217-10.281-27.832-10.281h-30.778zm-363.728-20.837 300.232 299.595h-64.305v-10.533c0-4.142-3.357-7.5-7.5-7.5s-7.5 3.358-7.5 7.5v10.533h-32.174v-20.445c0-4.142-3.358-7.5-7.5-7.5s-7.5 3.358-7.5 7.5v20.445h-32.203v-10.533c0-4.142-3.358-7.5-7.5-7.5s-7.5 3.358-7.5 7.5v10.533h-32.174v-20.445c0-4.142-3.358-7.5-7.5-7.5s-7.5 3.358-7.5 7.5v20.445h-32.201v-10.533c0-4.142-3.358-7.5-7.5-7.5s-7.5 3.358-7.5 7.5v10.533h-32.175z"/><path d="m124.468 268.99h83.095c3.131 0 8.96 0 11.192-5.395 2.195-5.307-1.637-9.13-4.436-11.922l-82.261-82.078c-2.794-2.81-6.622-6.657-11.936-4.465-5.4 2.229-5.4 8.053-5.4 11.182v82.938c.001 5.917 3.826 9.74 9.746 9.74zm5.255-80.537 65.683 65.537h-65.683z"/></g></g></svg>